<?xml version="1.0" standalone="no"?>
<!DOCTYPE svg PUBLIC "-//W3C//DTD SVG 20010904//EN"
 "http://www.w3.org/TR/2001/REC-SVG-20010904/DTD/svg10.dtd">
<svg version="1.0" xmlns="http://www.w3.org/2000/svg"
 width="366.000000pt" height="366.000000pt" viewBox="0 0 366.000000 366.000000"
 preserveAspectRatio="xMidYMid meet">
<metadata>
Created by potrace 1.11, written by Peter Selinger 2001-2013
</metadata>
<g transform="translate(0.000000,366.000000) scale(0.100000,-0.100000)"
fill="#000000" stroke="none">
<path d="M1679 3656 c-2 -2 -33 -7 -69 -10 -36 -4 -72 -9 -80 -11 -8 -2 -31
-6 -50 -9 -78 -12 -256 -66 -360 -109 -14 -6 -27 -11 -30 -11 -9 -1 -183 -90
-195 -99 -5 -4 -39 -26 -74 -48 -154 -98 -346 -275 -458 -424 -68 -91 -177
-265 -166 -265 5 0 3 -4 -3 -8 -19 -13 -136 -306 -136 -342 0 -3 -4 -15 -9
-28 -9 -22 -13 -41 -27 -117 -4 -22 -7 -182 -7 -355 0 -273 2 -324 18 -385 95
-363 244 -633 482 -871 165 -166 296 -261 493 -358 133 -66 286 -123 385 -142
10 -2 28 -6 40 -10 79 -25 263 -42 427 -39 184 3 193 4 349 34 110 22 347 96
372 118 8 7 20 13 26 13 14 0 130 61 198 104 30 20 59 36 63 36 4 0 19 11 34
25 15 14 32 25 38 25 5 0 10 5 10 10 0 6 4 10 8 10 14 0 90 68 203 182 244
246 401 537 485 903 13 56 16 606 4 683 -38 236 -157 517 -313 735 -78 110
-265 305 -362 377 -33 25 -61 48 -63 53 -2 4 -8 7 -12 7 -5 0 -31 15 -57 33
-186 126 -456 230 -703 273 -83 14 -450 30 -461 20z m321 -70 c30 -2 55 -5 55
-6 0 -1 16 -3 35 -5 34 -3 45 -5 125 -21 52 -10 55 -11 58 -14 5 -4 43 -11 60
-11 9 0 17 -5 17 -11 0 -6 3 -9 6 -5 3 3 26 -3 50 -14 25 -10 48 -18 52 -17
18 3 232 -101 311 -152 34 -22 64 -40 66 -40 3 0 14 -8 24 -17 32 -29 50 -43
56 -43 3 0 24 -18 47 -40 24 -22 48 -40 55 -40 6 0 15 -9 18 -20 3 -11 11 -20
16 -20 14 0 39 -26 39 -41 0 -7 3 -10 6 -6 3 3 20 -11 37 -31 18 -20 38 -41
44 -45 7 -4 13 -13 13 -20 0 -7 9 -18 20 -25 11 -7 20 -18 20 -25 0 -7 9 -19
20 -27 11 -8 20 -18 20 -23 0 -4 9 -17 20 -29 11 -12 20 -28 20 -35 0 -7 5
-13 10 -13 6 0 10 -7 10 -15 0 -8 5 -15 10 -15 6 0 10 -5 10 -10 0 -6 11 -28
25 -50 14 -21 26 -45 27 -52 2 -7 6 -15 9 -18 9 -7 46 -92 54 -123 4 -15 11
-27 16 -27 5 0 9 -11 9 -25 0 -14 5 -25 10 -25 6 0 10 -11 10 -25 0 -14 3 -25
8 -25 4 0 8 -10 9 -23 5 -47 8 -62 15 -67 4 -3 10 -21 13 -40 3 -19 8 -44 12
-54 6 -21 14 -73 17 -116 1 -14 4 -29 7 -35 3 -5 5 -29 5 -52 -1 -24 1 -43 4
-43 3 0 5 -23 5 -50 1 -28 -4 -50 -10 -50 -6 0 -7 -3 0 -8 6 -4 10 -14 10 -22
0 -8 -4 -18 -10 -22 -6 -5 -6 -8 1 -8 12 0 11 -41 -1 -59 -3 -6 -1 -11 5 -11
6 0 8 -5 5 -10 -4 -6 -8 -32 -11 -58 -3 -26 -7 -63 -10 -82 -3 -19 -7 -46 -9
-60 -1 -14 -4 -26 -5 -27 -1 -2 -4 -12 -5 -23 -1 -11 -4 -22 -5 -25 -1 -3 -3
-8 -4 -12 -14 -62 -30 -121 -37 -134 -4 -9 -10 -29 -13 -44 -3 -16 -10 -31
-16 -35 -7 -4 -11 -11 -10 -16 5 -22 -98 -234 -151 -311 -16 -23 -29 -45 -29
-50 0 -4 -14 -22 -30 -40 -17 -18 -30 -36 -30 -41 0 -6 -7 -13 -16 -16 -9 -4
-14 -9 -11 -12 3 -3 -11 -23 -31 -43 -20 -21 -56 -58 -78 -82 -52 -55 -134
-132 -134 -124 0 3 -9 -4 -20 -15 -11 -11 -25 -20 -31 -20 -5 0 -7 -4 -4 -10
3 -5 -6 -12 -20 -16 -14 -3 -25 -10 -25 -14 0 -9 -166 -113 -176 -110 -4 1
-10 -2 -13 -7 -8 -12 -163 -87 -174 -85 -4 1 -24 -7 -44 -18 -21 -11 -45 -20
-53 -20 -9 0 -21 -5 -28 -12 -7 -7 -12 -9 -12 -6 0 3 -21 -1 -47 -9 -41 -12
-67 -19 -118 -27 -5 -1 -14 -4 -20 -7 -5 -3 -20 -4 -32 -3 -13 0 -23 -2 -23
-6 0 -3 -12 -7 -27 -7 -45 -1 -145 -13 -153 -18 -5 -3 -11 -1 -15 5 -4 6 -13
7 -23 2 -26 -13 -180 -6 -327 14 -22 3 -49 6 -60 7 -11 2 -26 6 -33 11 -7 4
-19 5 -27 2 -8 -3 -15 -1 -15 4 0 5 -9 7 -20 5 -11 -2 -22 1 -25 6 -4 5 -11 7
-16 4 -5 -4 -15 -3 -21 2 -7 4 -16 8 -20 9 -5 1 -10 3 -13 4 -3 1 -9 4 -15 5
-5 1 -11 3 -12 4 -2 2 -14 5 -28 7 -13 2 -28 10 -32 17 -4 6 -8 9 -8 5 0 -10
-86 24 -195 78 -125 62 -155 80 -148 88 3 3 -3 6 -15 6 -12 0 -22 4 -22 8 0 4
-13 16 -30 25 -16 10 -35 23 -42 30 -7 8 -20 18 -30 23 -59 33 -308 284 -308
310 0 7 -7 15 -16 18 -9 4 -15 9 -12 12 3 2 -8 19 -23 35 -16 17 -29 37 -29
45 0 8 -4 14 -8 14 -4 0 -18 19 -30 43 -12 23 -33 60 -46 82 -13 22 -22 43
-19 47 2 5 1 8 -4 8 -4 0 -14 12 -20 27 -31 71 -70 171 -78 198 -5 17 -9 33
-10 38 -2 4 -3 8 -5 10 -2 3 -11 40 -12 55 -1 6 -5 12 -9 12 -5 0 -6 6 -3 14
3 8 1 23 -4 33 -10 18 -25 104 -24 136 0 9 -4 17 -10 17 -6 0 -6 6 2 15 7 8 8
15 4 15 -5 0 -9 17 -9 38 1 20 -1 41 -3 46 -8 15 -8 87 -1 92 4 2 4 17 0 32
-11 42 2 210 23 315 10 46 17 81 23 112 3 17 9 38 14 48 5 9 7 17 3 17 -3 0
-1 7 6 15 7 8 10 15 6 15 -3 0 3 24 15 53 11 28 22 59 24 68 2 9 8 25 14 35
13 22 33 77 31 83 -1 2 2 7 7 10 4 3 17 24 28 46 11 22 32 59 47 81 15 23 24
44 21 48 -4 3 -1 6 5 6 7 0 12 6 12 14 0 8 3 16 8 18 4 2 32 37 63 79 78 104
108 137 251 272 10 9 23 17 30 17 6 0 9 3 5 6 -7 7 13 22 153 116 95 63 148
93 163 90 4 -1 7 2 7 7 0 5 26 19 58 32 31 12 59 25 62 28 3 3 11 7 18 9 6 1
18 3 25 5 6 1 14 5 17 9 3 4 17 10 30 12 14 2 27 5 30 6 3 2 8 2 13 1 4 0 7 3
7 7 0 8 14 12 53 13 9 0 17 4 17 7 0 4 8 9 18 10 17 2 53 9 62 12 3 1 10 3 15
5 6 1 12 3 15 4 3 1 21 4 40 6 51 7 64 10 77 18 6 4 14 3 18 -3 4 -6 12 -7 18
-3 7 4 39 9 71 10 32 1 60 4 62 6 4 3 150 -1 234 -7z"/>
<path d="M1062 2604 c-348 -63 -562 -289 -607 -639 -6 -44 -6 -232 -1 -280 35
-322 219 -550 501 -621 94 -23 327 -28 465 -10 105 14 265 50 289 65 10 7 13
85 13 362 -1 195 -1 366 -1 382 l-1 27 -282 -2 -283 -3 -1 -107 -1 -108 159 0
c143 0 158 -2 159 -17 1 -10 2 -98 3 -196 l1 -177 -30 -5 c-16 -3 -53 -9 -82
-13 -143 -24 -305 -6 -407 45 -117 59 -211 205 -234 363 -9 61 -8 245 2 300
35 199 163 350 346 407 41 13 88 17 185 16 110 0 143 -4 218 -27 49 -15 101
-33 117 -41 32 -17 30 -19 84 115 l34 85 -36 16 c-34 15 -158 50 -227 65 -62
13 -310 12 -383 -2z"/>
<path d="M2093 1833 l2 -768 330 -2 c399 -2 474 9 593 90 114 77 167 168 178
308 10 126 -24 235 -96 306 -37 36 -120 78 -172 88 -37 7 -53 25 -23 25 30 0
121 48 154 81 37 37 80 122 87 169 2 17 6 42 8 58 6 43 -11 144 -33 192 -11
25 -39 64 -63 86 -64 62 -116 85 -273 120 -16 4 -179 9 -362 11 l-331 5 1
-769z m638 538 c79 -20 122 -52 145 -108 20 -52 16 -141 -10 -196 -19 -40 -77
-80 -131 -93 -53 -12 -377 -17 -384 -6 -5 8 -7 382 -2 415 2 15 312 6 382 -12z
m48 -635 c102 -38 150 -105 151 -210 0 -81 -18 -134 -61 -177 -60 -60 -107
-71 -326 -77 -158 -3 -193 -2 -194 9 -4 43 -4 465 -1 473 3 4 91 6 196 4 144
-4 202 -9 235 -22z"/>
</g>
</svg>
